<svg xmlns="http://www.w3.org/2000/svg" height="36" viewBox="0 0 36 36" width="36">
    <path d="M 0 0 h 24 v 24 H 0 z" fill="none" />
    <g
       >
        <path transform="matrix(1.7,0,0,1.6,-12.4,-8.9)" style="fill: white" d="M 21.6 11.5 L 17 7 v 3.1 C 13.1 10.6 10 13.9 10 18 s 3 7.4 7 7.9 v -2 c -2.8 -0.5 -5 -2.9 -5 -5.9 s 2.2 -5.4 5 -5.9 V 16 l 4.6 -4.5 z M 25.9 17 c -0.2 -1.4 -0.7 -2.7 -1.4 -4 l -1.6 1.5 c 0.5 0.8 0.9 1.6 1 2.5 h 2 z M 19 23.9 v 2 c 1.4 -0.2 2.7 -0.7 3.9 -1.6 l -1.4 -1.4 c -0.8 0.5 -1.6 0.9 -2.5 1 z m 3.9 -2.4 l 1.4 1.4 c 0.9 -1.2 1.4 -2.5 1.6 -3.9 h -2 c -0.1 0.9 -0.5 1.7 -1 2.5 z"/>
    </g>
</svg>